<?xml version="1.0" encoding="utf-8"?>
<!-- Generator: Adobe Illustrator 17.0.0, SVG Export Plug-In . SVG Version: 6.00 Build 0)  -->
<!DOCTYPE svg PUBLIC "-//W3C//DTD SVG 1.1//EN" "http://www.w3.org/Graphics/SVG/1.1/DTD/svg11.dtd">
<svg version="1.1" id="Layer_1" xmlns="http://www.w3.org/2000/svg" xmlns:xlink="http://www.w3.org/1999/xlink" x="0px" y="0px"
	 viewBox="0 0 612 792" enable-background="new 0 0 612 792" xml:space="preserve">
<path id="comments_1_" fill="#4E4E4E" d="M320,393.104c0,1.659-0.68,3.212-1.848,4.552c-1.371-2.029-4.287-3.406-7.75-3.406
	c-4.824,0-8.6,2.657-8.6,6.051c0,0.5,0.092,0.98,0.246,1.442c-0.165-0.036-0.334-0.067-0.497-0.107
	c-2.836,2.877-6.851,3.143-6.851,3.143c1.72-1.449,2.609-3.087,3.056-4.566c-3.134-1.668-5.147-4.23-5.147-7.107
	c0-5.029,6.133-9.105,13.695-9.105S320,388.076,320,393.104z M318.104,400.711c0-2.789-3.4-5.053-7.6-5.053
	c-4.196,0-7.599,2.264-7.599,5.053c0,2.791,3.402,5.054,7.599,5.054c0.93,0,1.814-0.116,2.637-0.319
	c1.574,1.598,3.803,1.744,3.803,1.744c-0.955-0.804-1.447-1.713-1.695-2.534C316.987,403.73,318.104,402.309,318.104,400.711z"/>
</svg>
