<?xml version="1.0" encoding="utf-8"?>
<!-- Generator: Adobe Illustrator 17.0.0, SVG Export Plug-In . SVG Version: 6.00 Build 0)  -->
<!DOCTYPE svg PUBLIC "-//W3C//DTD SVG 1.1//EN" "http://www.w3.org/Graphics/SVG/1.1/DTD/svg11.dtd">
<svg version="1.1" id="All" xmlns="http://www.w3.org/2000/svg" xmlns:xlink="http://www.w3.org/1999/xlink" x="0px" y="0px"
	 width="612px" height="792px" viewBox="0 0 612 792" enable-background="new 0 0 612 792" xml:space="preserve">
<g id="Letters">
	<g id="T">
		
			<rect x="196.836" y="410.195" transform="matrix(7.851521e-05 -1 1 7.851521e-05 -121.6198 701.8519)" fill="#0F0D0D" width="186.615" height="3.091"/>
		<rect x="193.551" y="315.342" width="193.182" height="3.091"/>
	</g>
	<g id="D">
		<path d="M385.56,419.034c-0.04-10.052-5.818-18.258-13.138-19.061v-0.088h-15.455v38.429h14.2
			c0.058,0.001,0.114,0.011,0.173,0.011c0.049,0,0.098-0.01,0.148-0.011h0.933v-0.068C379.807,437.461,385.6,429.155,385.56,419.034
			z"/>
		<path fill="none" stroke="#47C2CC" stroke-width="4" stroke-miterlimit="10" d="M321.004,334.671
			c-0.914,0-1.827,0.006-2.735,0.025v168.819c0.907,0.019,1.821,0.025,2.735,0.025c58.733,0,106.346-37.804,106.346-84.437
			C427.35,372.475,379.737,334.671,321.004,334.671z"/>
		<g id="XMLID_1_">
			<g>
				<path fill="#0E0E0E" d="M152.691,396.023c0,86.638,70.233,156.871,156.871,156.871s156.871-70.233,156.871-156.871
					S396.2,239.152,309.562,239.152S152.691,309.385,152.691,396.023z M309.315,231.471c90.749,0,164.32,73.571,164.32,164.32
					c0,90.757-73.571,164.32-164.32,164.32c-90.757,0-164.328-73.564-164.328-164.32
					C144.987,305.042,218.558,231.471,309.315,231.471z"/>
			</g>
			<g>
				<path fill="none" stroke="#0E0E0E" stroke-miterlimit="10" d="M309.315,231.471c-90.757,0-164.328,73.571-164.328,164.32
					c0,90.757,73.571,164.32,164.328,164.32c90.749,0,164.32-73.564,164.32-164.32C473.635,305.042,400.064,231.471,309.315,231.471
					z"/>
				<circle fill="none" stroke="#0E0E0E" stroke-miterlimit="10" cx="309.562" cy="396.023" r="156.871"/>
			</g>
		</g>
		<polygon fill="#0E0E0E" stroke="#0E0E0E" stroke-miterlimit="10" points="303.682,234.536 303.682,221.616 315.392,228.076 
			327.101,234.536 315.392,240.995 303.682,247.455 		"/>
	</g>
</g>
</svg>
