<?xml version="1.0" encoding="utf-8"?>
<!-- Generator: Adobe Illustrator 17.0.0, SVG Export Plug-In . SVG Version: 6.00 Build 0)  -->
<!DOCTYPE svg PUBLIC "-//W3C//DTD SVG 1.1//EN" "http://www.w3.org/Graphics/SVG/1.1/DTD/svg11.dtd">
<svg version="1.1" id="All" xmlns="http://www.w3.org/2000/svg" xmlns:xlink="http://www.w3.org/1999/xlink" x="0px" y="0px"
	 viewBox="0 0 792 612" enable-background="new 0 0 792 612" xml:space="preserve">
<g id="Letters">
	<g id="T">

			<rect x="254.729" y="324.37" transform="matrix(-7.848343e-05 1 -1 -7.848343e-05 701.8794 -49.0842)" fill="#0F0D0D" width="241.502" height="4"/>
		<rect x="250.478" y="201.619" width="250" height="4"/>
	</g>
	<g id="D">
		<path d="M498.96,335.809c-0.052-13.008-7.529-23.628-17.002-24.667v-0.114h-20v49.732h18.377c0.075,0.001,0.148,0.014,0.224,0.014
			c0.064,0,0.127-0.013,0.191-0.014h1.208v-0.088C491.515,359.656,499.012,348.907,498.96,335.809z"/>
		<path fill="none" stroke="#0D0D0D" stroke-width="4" stroke-miterlimit="10" d="M415.417,226.633c-1.183,0-2.365,0.008-3.54,0.033
			v218.471c1.174,0.024,2.357,0.033,3.54,0.033c76.008,0,137.624-48.923,137.624-109.272
			C553.041,275.556,491.425,226.633,415.417,226.633z"/>
		<g id="XMLID_1_">
			<g>
				<path fill="#0E0E0E" d="M197.6,306.03c0,112.12,90.89,203.01,203.01,203.01s203.01-90.89,203.01-203.01
					s-90.89-203.01-203.01-203.01S197.6,193.91,197.6,306.03z M400.29,93.08c117.44,0,212.65,95.21,212.65,212.65
					c0,117.45-95.21,212.65-212.65,212.65c-117.45,0-212.66-95.2-212.66-212.65C187.63,188.29,282.84,93.08,400.29,93.08z"/>
			</g>
			<g>
				<path fill="none" stroke="#0E0E0E" stroke-miterlimit="10" d="M400.29,93.08c-117.45,0-212.66,95.21-212.66,212.65
					c0,117.45,95.21,212.65,212.66,212.65c117.44,0,212.65-95.2,212.65-212.65C612.94,188.29,517.73,93.08,400.29,93.08z"/>
				<circle fill="none" stroke="#0E0E0E" stroke-miterlimit="10" cx="400.61" cy="306.03" r="203.01"/>
			</g>
		</g>
		<polygon fill="#0E0E0E" stroke="#0E0E0E" stroke-miterlimit="10" points="393,97.046 393,80.327 408.154,88.686 423.307,97.046
			408.154,105.405 393,113.765 		"/>
	</g>
</g>
</svg>
